<svg xmlns="http://www.w3.org/2000/svg" xmlns:xlink="http://www.w3.org/1999/xlink" version="1.1" x="0px" y="0px" viewBox="0 0 200 200" enable-background="new 0 0 200 200" xml:space="preserve">
<path fill="#ffffff" d="m100.39 54.633c-9.313-0.127-17.645 4.92-21.888 13.17l-38.217 73.667c-0.88001 1.76 0.37722 3.8965 2.3887 3.8965h14.08c1.0057 0 1.8858-0.50281 2.3887-1.3828l35.074-68.015c1.6343-3.1429 4.6518-3.5215 5.7832-3.5215s4.1489 0.3786 5.7832 3.5215l35.074 68.012c0.50286 0.88001 1.383 1.3828 2.3887 1.3828h14.08c2.0114 0 3.2687-2.1365 2.3887-3.8965l-37.84-73.038c-3.8971-7.5429-11.188-12.949-19.611-13.703-0.62858-0.05501-1.2542-0.0873-1.875-0.09565z"/>
</svg>